<?xml version="1.0" standalone="no"?>
<!DOCTYPE svg PUBLIC "-//W3C//DTD SVG 20010904//EN"
 "http://www.w3.org/TR/2001/REC-SVG-20010904/DTD/svg10.dtd">
<svg version="1.0" xmlns="http://www.w3.org/2000/svg"
 width="300.000000pt" height="305.000000pt" viewBox="0 0 300.000000 305.000000"
 preserveAspectRatio="xMidYMid meet">
<metadata>
Created by potrace 1.10, written by Peter Selinger 2001-2011
</metadata>
<g transform="translate(0.000000,305.000000) scale(0.100000,-0.100000)"
fill="#000000" stroke="none">
<path d="M1219 2772 c-42 -22 -58 -38 -79 -77 -22 -44 -25 -63 -28 -182 l-4
-133 -219 0 c-200 0 -221 -2 -238 -19 -17 -17 -19 -57 -27 -742 -13 -1108 -13
-1158 10 -1175 17 -12 152 -14 875 -14 471 0 866 3 878 6 43 12 46 43 39 382
-7 325 -26 1375 -26 1470 0 39 -5 57 -20 72 -19 19 -33 20 -233 20 l-212 0 -1
133 c0 143 -8 172 -62 230 -46 48 -100 57 -363 57 l-237 0 -53 -28z m548 -6
c52 -9 119 -68 133 -116 6 -19 10 -82 10 -140 0 -158 -13 -150 231 -150 170 0
199 -2 199 -15 0 -8 7 -15 15 -15 8 0 16 -3 16 -7 5 -26 7 -129 14 -683 4
-338 11 -624 15 -635 12 -31 12 -515 0 -515 -6 0 -9 -5 -8 -11 2 -7 -10 -15
-26 -20 -16 -4 -400 -8 -855 -9 -703 0 -830 2 -846 14 -20 14 -20 28 -16 548
2 293 5 578 6 633 1 55 2 229 3 386 2 272 3 286 22 307 20 21 28 22 225 22
l205 0 16 25 c13 19 16 47 16 113 -2 136 5 166 48 212 21 22 45 40 54 40 9 0
16 4 16 9 0 6 15 11 33 13 62 6 432 1 474 -6z"/>
<path d="M1271 2697 c-13 -6 -34 -25 -45 -40 -19 -25 -21 -42 -21 -153 0 -100
3 -127 15 -134 20 -13 590 -13 610 0 24 15 27 224 3 270 -33 64 -59 70 -313
70 -159 0 -232 -4 -249 -13z m502 -18 c38 -17 46 -45 49 -177 l3 -122 -303 0
-304 0 4 131 c3 129 3 131 31 155 28 24 29 24 262 24 150 0 243 -4 258 -11z"/>
<path d="M1054 1806 c-53 -24 -64 -63 -64 -240 0 -103 -4 -156 -11 -156 -5 0
-8 -4 -5 -9 3 -5 -8 -14 -24 -21 -32 -13 -36 -25 -21 -62 10 -23 65 -88 76
-88 3 0 18 -11 33 -25 15 -14 32 -25 39 -25 6 0 14 -8 17 -18 3 -10 18 -25 33
-34 24 -13 76 -15 393 -13 349 1 436 7 424 26 -3 5 4 9 15 9 11 0 42 21 70 48
88 85 127 232 95 362 -22 85 -38 116 -93 172 -86 87 -92 88 -549 88 -309 -1
-404 -4 -428 -14z m863 -21 c60 -25 117 -80 154 -147 33 -60 34 -67 34 -168 0
-92 -3 -111 -25 -155 -35 -71 -105 -138 -165 -158 -42 -15 -99 -17 -411 -17
-199 0 -369 3 -378 6 -32 12 -14 42 73 127 l88 87 276 0 c295 0 290 -1 317 51
22 40 13 117 -18 152 -14 16 -44 17 -364 17 l-349 0 3 -107 3 -108 34 0 c19 0
36 -5 38 -10 2 -6 -31 -44 -72 -85 l-74 -74 -73 70 c-83 78 -90 99 -38 99 l35
1 6 194 c3 107 6 196 7 197 1 1 12 11 24 23 21 19 33 20 430 20 343 0 414 -2
445 -15z m-78 -254 c40 -38 43 -90 6 -126 l-24 -25 -256 0 c-201 0 -263 -3
-290 -14 -20 -9 -35 -11 -35 -5 0 5 -15 16 -32 24 -18 8 -26 15 -18 15 12 0
11 3 -2 11 -14 7 -18 23 -18 61 0 90 -11 87 336 87 l302 1 31 -29z"/>
</g>
</svg>
